# xmcd CD database file
#
# Track frame offsets:
#	150
#	19726
#	37393
#	43011
#	64808
#	69588
#	89855
#	104482
#	126295
#	150671
#	156860
#	178759
#	196499
#
# Disc length: 2946 seconds
#
# Revision: 0
# Processed by: cddbd v1.5.2PL0 Copyright (c) Steve Scherf et al.
# Submitted via: CDex 1.70beta2
#
DISCID=c20b800d
DTITLE=Michael Manring - Soliloquy
DYEAR=2005
DGENRE=New Age
TTITLE0=Helios
TTITLE1=Excuse Me, Mr. Manring
TTITLE2=I Left America
TTITLE3=Greetings, Earthlings!
TTITLE4=Makes Perfect Sene to Me
TTITLE5=The Light Which Puts Out Our Eyes
TTITLE6=A Morning Star
TTITLE7=Selene
TTITLE8=Dabuda's Memory
TTITLE9=When We Were Asleep in the Earth
TTITLE10=The Orffyreus Wheel
TTITLE11=Insomnia Lessons
TTITLE12=Come With Me, My Love
EXTD=YEAR: 2005
EXTT0=
EXTT1=
EXTT2=
EXTT3=
EXTT4=
EXTT5=
EXTT6=
EXTT7=
EXTT8=
EXTT9=
EXTT10=
EXTT11=
EXTT12=
PLAYORDER=
